<mxfile host="app.diagrams.net" modified="2021-11-09T11:04:24.024Z" agent="5.0 (Windows NT 10.0; Win64; x64) AppleWebKit/537.36 (KHTML, like Gecko) Chrome/95.0.4638.69 Safari/537.36 Edg/95.0.1020.44" etag="6ZiMVEXFC_0PKr5NyiQv" version="15.5.9" type="github">
  <diagram id="jDQc6FcQKfYPqijiBvXh" name="Page-1">
    <mxGraphModel dx="757" dy="458" grid="1" gridSize="10" guides="1" tooltips="1" connect="1" arrows="1" fold="1" page="1" pageScale="1" pageWidth="827" pageHeight="1169" math="0" shadow="0">
      <root>
        <mxCell id="0" />
        <mxCell id="1" parent="0" />
        <mxCell id="3jGAdaQ_HoGXjhLUZ8hm-19" value="" style="rounded=0;whiteSpace=wrap;html=1;" vertex="1" parent="1">
          <mxGeometry x="20" y="80" width="720" height="640" as="geometry" />
        </mxCell>
        <mxCell id="3jGAdaQ_HoGXjhLUZ8hm-16" value="" style="rounded=0;whiteSpace=wrap;html=1;fillColor=#f5f5f5;fontColor=#333333;strokeColor=#666666;" vertex="1" parent="1">
          <mxGeometry x="375" y="420" width="10" height="40" as="geometry" />
        </mxCell>
        <mxCell id="3jGAdaQ_HoGXjhLUZ8hm-9" value="" style="rounded=0;whiteSpace=wrap;html=1;fillColor=#f5f5f5;fontColor=#333333;strokeColor=#666666;" vertex="1" parent="1">
          <mxGeometry x="375" y="240" width="10" height="40" as="geometry" />
        </mxCell>
        <mxCell id="3jGAdaQ_HoGXjhLUZ8hm-1" value="Smart Phone&lt;br&gt;(App)" style="rounded=1;whiteSpace=wrap;html=1;fillColor=#ffe6cc;strokeColor=#d79b00;" vertex="1" parent="1">
          <mxGeometry x="80" y="120" width="120" height="60" as="geometry" />
        </mxCell>
        <mxCell id="3jGAdaQ_HoGXjhLUZ8hm-2" value="LoRa Module&lt;br&gt;(Bluetooth)" style="rounded=1;whiteSpace=wrap;html=1;fillColor=#ffe6cc;strokeColor=#d79b00;" vertex="1" parent="1">
          <mxGeometry x="320" y="120" width="120" height="60" as="geometry" />
        </mxCell>
        <mxCell id="3jGAdaQ_HoGXjhLUZ8hm-3" value="Arduino" style="rounded=1;whiteSpace=wrap;html=1;fillColor=#ffe6cc;strokeColor=#d79b00;" vertex="1" parent="1">
          <mxGeometry x="560" y="120" width="120" height="60" as="geometry" />
        </mxCell>
        <mxCell id="3jGAdaQ_HoGXjhLUZ8hm-4" value="" style="endArrow=none;dashed=1;html=1;dashPattern=1 3;strokeWidth=2;rounded=0;entryX=0.5;entryY=1;entryDx=0;entryDy=0;" edge="1" parent="1" target="3jGAdaQ_HoGXjhLUZ8hm-1">
          <mxGeometry width="50" height="50" relative="1" as="geometry">
            <mxPoint x="140" y="580" as="sourcePoint" />
            <mxPoint x="430" y="320" as="targetPoint" />
          </mxGeometry>
        </mxCell>
        <mxCell id="3jGAdaQ_HoGXjhLUZ8hm-5" value="" style="endArrow=none;dashed=1;html=1;dashPattern=1 3;strokeWidth=2;rounded=0;entryX=0.5;entryY=1;entryDx=0;entryDy=0;startArrow=none;" edge="1" parent="1" source="3jGAdaQ_HoGXjhLUZ8hm-9">
          <mxGeometry width="50" height="50" relative="1" as="geometry">
            <mxPoint x="379.5" y="580" as="sourcePoint" />
            <mxPoint x="379.5" y="180" as="targetPoint" />
          </mxGeometry>
        </mxCell>
        <mxCell id="3jGAdaQ_HoGXjhLUZ8hm-6" value="" style="endArrow=none;dashed=1;html=1;dashPattern=1 3;strokeWidth=2;rounded=0;entryX=0.5;entryY=1;entryDx=0;entryDy=0;" edge="1" parent="1">
          <mxGeometry width="50" height="50" relative="1" as="geometry">
            <mxPoint x="619.5" y="580" as="sourcePoint" />
            <mxPoint x="619.5" y="180" as="targetPoint" />
          </mxGeometry>
        </mxCell>
        <mxCell id="3jGAdaQ_HoGXjhLUZ8hm-7" value="앱에서 Open / Close 신호 발생" style="endArrow=classic;html=1;rounded=0;" edge="1" parent="1">
          <mxGeometry y="10" width="50" height="50" relative="1" as="geometry">
            <mxPoint x="140" y="240" as="sourcePoint" />
            <mxPoint x="380" y="240" as="targetPoint" />
            <mxPoint as="offset" />
          </mxGeometry>
        </mxCell>
        <mxCell id="3jGAdaQ_HoGXjhLUZ8hm-8" value="LoRa 모듈을 통해 아두이노에 신호 전달" style="endArrow=classic;html=1;rounded=0;" edge="1" parent="1">
          <mxGeometry y="10" width="50" height="50" relative="1" as="geometry">
            <mxPoint x="380" y="280" as="sourcePoint" />
            <mxPoint x="620" y="280" as="targetPoint" />
            <mxPoint as="offset" />
          </mxGeometry>
        </mxCell>
        <mxCell id="3jGAdaQ_HoGXjhLUZ8hm-11" value="" style="endArrow=none;dashed=1;html=1;dashPattern=1 3;strokeWidth=2;rounded=0;entryX=0.5;entryY=1;entryDx=0;entryDy=0;startArrow=none;" edge="1" parent="1" source="3jGAdaQ_HoGXjhLUZ8hm-16" target="3jGAdaQ_HoGXjhLUZ8hm-9">
          <mxGeometry width="50" height="50" relative="1" as="geometry">
            <mxPoint x="379.5" y="580" as="sourcePoint" />
            <mxPoint x="379.5" y="180" as="targetPoint" />
          </mxGeometry>
        </mxCell>
        <mxCell id="3jGAdaQ_HoGXjhLUZ8hm-12" value="도어록에서&lt;br&gt;Open / Close&lt;br&gt;동작 수행" style="rounded=0;whiteSpace=wrap;html=1;fillColor=#f5f5f5;fontColor=#333333;strokeColor=#666666;" vertex="1" parent="1">
          <mxGeometry x="560" y="320" width="120" height="60" as="geometry" />
        </mxCell>
        <mxCell id="3jGAdaQ_HoGXjhLUZ8hm-14" value="" style="endArrow=classic;html=1;rounded=0;" edge="1" parent="1">
          <mxGeometry width="50" height="50" relative="1" as="geometry">
            <mxPoint x="620" y="420" as="sourcePoint" />
            <mxPoint x="380" y="420" as="targetPoint" />
          </mxGeometry>
        </mxCell>
        <mxCell id="3jGAdaQ_HoGXjhLUZ8hm-15" value="도어록의 수행 결과를 전달" style="edgeLabel;html=1;align=center;verticalAlign=middle;resizable=0;points=[];" vertex="1" connectable="0" parent="3jGAdaQ_HoGXjhLUZ8hm-14">
          <mxGeometry x="-0.1626" y="-1" relative="1" as="geometry">
            <mxPoint x="-20" y="-9" as="offset" />
          </mxGeometry>
        </mxCell>
        <mxCell id="3jGAdaQ_HoGXjhLUZ8hm-17" value="" style="endArrow=none;dashed=1;html=1;dashPattern=1 3;strokeWidth=2;rounded=0;entryX=0.5;entryY=1;entryDx=0;entryDy=0;" edge="1" parent="1" target="3jGAdaQ_HoGXjhLUZ8hm-16">
          <mxGeometry width="50" height="50" relative="1" as="geometry">
            <mxPoint x="379.5" y="580" as="sourcePoint" />
            <mxPoint x="380" y="280" as="targetPoint" />
          </mxGeometry>
        </mxCell>
        <mxCell id="3jGAdaQ_HoGXjhLUZ8hm-18" value="Open / Close 결과를 확인" style="endArrow=classic;html=1;rounded=0;exitX=0.25;exitY=1;exitDx=0;exitDy=0;" edge="1" parent="1" source="3jGAdaQ_HoGXjhLUZ8hm-16">
          <mxGeometry x="-0.0105" y="-10" width="50" height="50" relative="1" as="geometry">
            <mxPoint x="380" y="370" as="sourcePoint" />
            <mxPoint x="140" y="460" as="targetPoint" />
            <mxPoint x="1" as="offset" />
          </mxGeometry>
        </mxCell>
      </root>
    </mxGraphModel>
  </diagram>
</mxfile>
